# xmcd
#
# Track frame offsets:
#	150
#	15321
#	26134
#	38495
#	49107
#	64757
#	78049
#	86850
#	100169
#	112255
#	123824
#	136236
#	149885
#	164206
#	172601
#	187475
#	203044
#
# Disc length: 2737 seconds
#
# Revision: 1
# Processed by: cddbd v1.4PL0 Copyright (c) Steve Scherf et al.
# Submitted via: CDmax 1.9
#
DISCID=ed0aaf11
DTITLE=Mad Sin - Survival of the sickest
DYEAR=2002
DGENRE=Alt. Country
TTITLE0=Communication breakdown
TTITLE1=Revenge
TTITLE2=Sin is law
TTITLE3=Nothing's alright
TTITLE4=1000 eyes
TTITLE5=Conquer the world
TTITLE6=Caroline
TTITLE7=Psycho Babylon
TTITLE8=Love is dead
TTITLE9=Wild things
TTITLE10=She's so bad it's good
TTITLE11=Senseless generation
TTITLE12=Danger zone
TTITLE13=Dilirium
TTITLE14=Dance with the devil
TTITLE15=Class war path
TTITLE16=Outro
EXTD=
EXTT0=
EXTT1=
EXTT2=
EXTT3=
EXTT4=
EXTT5=
EXTT6=
EXTT7=
EXTT8=
EXTT9=
EXTT10=
EXTT11=
EXTT12=
EXTT13=
EXTT14=
EXTT15=
EXTT16=
PLAYORDER=
